<?xml version="1.0" encoding="utf-8"?>
<!-- Generator: Adobe Illustrator 18.1.1, SVG Export Plug-In . SVG Version: 6.00 Build 0)  -->
<svg version="1.1" id="Layer_1" xmlns="http://www.w3.org/2000/svg" xmlns:xlink="http://www.w3.org/1999/xlink" x="0px" y="0px"
	 viewBox="-147 140.9 301 560" enable-background="new -147 140.9 301 560" xml:space="preserve">
<path id="topbar" d="M154,200.9h-301v-60h301V200.9z"/>
<g id="open-asset">
	<path d="M55,202.9h97v97H55V202.9z"/>
	<path id="oa-shadow" opacity="0.5" fill="#FFFFFF" d="M124,237v28l0.1,0.9c0,0.7-0.5,1.3-1.2,1.4l-38.4,3c-0.4,0-0.8-0.2-1.1-0.5
		l25.5,30.4h43v-30.3l-28.3-33.7C123.9,236.4,124,236.7,124,237L124,237z"/>
	<path id="Layer_2_3_" fill="#FFFFFF" d="M124.1,265.7l-0.1-0.9v-28c0-0.7-0.5-1.3-1.2-1.3h-1.3c-0.3-0.3-0.6-0.5-1.1-0.4l-5.8,0.4
		H85.9c-0.7,0-1.2,0.6-1.2,1.3v1l-2.6,0.2c-0.7,0.1-1.2,0.7-1.2,1.4l2.2,29.6c0.1,0.7,0.7,1.2,1.4,1.2l38.4-2.9
		C123.6,267,124.1,266.4,124.1,265.7L124.1,265.7z M84.8,263L83,240l1.8-0.1V263z M95.2,242.1c1.6,0,2.9,1.3,2.9,2.9
		c0,1.6-1.3,2.9-2.9,2.9c-1.6,0-2.9-1.3-2.9-2.9C92.3,243.4,93.6,242.1,95.2,242.1z M85.1,267.7l-0.1-1.9c0.2,0.3,0.6,0.5,1,0.5H103
		C103,266.4,85.1,267.7,85.1,267.7z M119.4,261.5H89.5v-1.9L97,254l0,0.1l4.9,3l7.5-10.1l6.2,3.7l3.7,8.2L119.4,261.5L119.4,261.5z"
		/>
	<text transform="matrix(1 0 0 1 72.405 289.89)" fill="#FFFFFF" font-family="'ArialMT'" font-size="12">Open Asset</text>
</g>
<g id="project-library">
	<path d="M-44,202.9h97v97h-97V202.9z"/>
	<path id="project-shadow" opacity="0.5" fill="#FFFFFF" d="M20.9,244.2l-6.4,2.5L4.1,234.3v35h-16.8l25.9,30.9H53v-17.7L20.9,244.2
		L20.9,244.2z M11.8,269.3H8.3v-8.1h3.5V269.3z M11.8,258.1H8.3v-5.3h3.5V258.1z M18.5,266.5H15v-5.3h3.5V266.5z M18.5,258.1H15
		v-5.3h3.5V258.1z"/>
	<g>
		<path fill="#FFFFFF" d="M5.5,249.9V269h2.8v-8h3.5v8h9.1v-25L5.5,249.9L5.5,249.9z M11.8,257.8H8.3v-5.2h3.5V257.8z M18.5,266.2
			H15v-5.3h3.5V266.2z M18.5,257.8H15v-5.2h3.5V257.8z M-12.7,234v35h10.1v-8H1v8h3.1v-35H-12.7L-12.7,234z M-6,266.2h-3.5v-5.3H-6
			V266.2z M-6,257.8h-3.5v-5.2H-6V257.8z M-6,249.7h-3.5v-5.3H-6V249.7z M-6,241.7h-3.5v-5.3H-6V241.7z M1,257.8h-3.5v-5.3H1V257.8z
			 M1,249.7h-3.5v-5.3H1V249.7z M1,241.7h-3.5v-5.3H1V241.7z"/>
	</g>
	<text transform="matrix(1 0 0 1 -40.165 289.89)" fill="#FFFFFF" font-family="'ArialMT'" font-size="12">Project Library</text>
</g>
<g id="phonelist">
	<path d="M-145,202.9h99v97h-99V202.9z"/>
	<path id="phone-shadow" opacity="0.5" fill="#FFFFFF" d="M-78.3,261.5c0.3,0.5,0,1.6-0.2,2.2c-2,4.8-6.6,5.6-8.2,5.6
		c-0.4,0-7.4,0.4-17.4-9.1c-0.9-0.8-1.6-1.7-2.4-2.5l35.7,42.5H-46v-0.3L-78.3,261.5L-78.3,261.5z M-100.6,242.1
		c0.1,0.2,0.2,0.5,0.2,0.7c0,0.3-0.2,0.7-0.7,1.2s-1,1-1.5,1.4c-0.6,0.4-1.1,0.8-1.5,1.3c-0.5,0.5-0.7,0.9-0.7,1.2
		c0,0.8,0.7,3.5,5.5,7.8c4.8,4.3,7.1,5.4,7.4,5.5c0.2,0.1,0.4,0.1,0.6,0.1c0.3,0,0.7-0.2,1.1-0.7c0.5-0.5,2-2.6,2.5-3.1
		s0.9-0.7,1.3-0.7h0.3l-18.9-22.5c0,0-0.1,0.1-0.2,0.1h0.1C-105.2,234.6-100.8,241.8-100.6,242.1z"/>
	<path fill="#FFFFFF" d="M-78.5,263.4c-2,4.8-6.6,5.6-8.2,5.6c-0.4,0-7.4,0.4-17.4-9.1c-8-7.6-9-15.8-9.1-17.4
		c-0.1-1.5,0.3-5.3,5.6-8.1c0.7-0.3,1.9-0.5,2.3-0.2c0.2,0.1,4.5,7.4,4.7,7.6c0.1,0.2,0.2,0.5,0.2,0.7c0,0.3-0.2,0.7-0.7,1.2
		c-0.5,0.5-1,0.9-1.5,1.4c-0.6,0.4-1.1,0.8-1.5,1.3c-0.5,0.5-0.7,0.8-0.7,1.1c0,0.8,0.7,3.5,5.5,7.8c4.8,4.2,7.1,5.4,7.4,5.5
		c0.2,0.1,0.4,0.1,0.6,0.1c0.3,0,0.7-0.2,1.1-0.7s2-2.6,2.5-3.1c0.5-0.5,0.9-0.7,1.3-0.7c0.2,0,0.5,0.1,0.7,0.2
		c0.2,0.1,7.5,4.4,7.6,4.5C-77.9,261.5-78.2,262.7-78.5,263.4"/>
	<text transform="matrix(1 0 0 1 -127.179 289.89)" fill="#FFFFFF" font-family="'ArialMT'" font-size="13">Phone List</text>
</g>
<g id="archives">
	<path d="M-145,301.9h99v98h-99V301.9z"/>
	<path id="archive-shadow" opacity="0.5" fill="#FFFFFF" d="M-83.2,336.6h-24.2l0.8,1l-0.3,0.3h25l1.4,2.7h-29.6l0.8,1.1l-0.3,0.3
		h30.4l1.4,2.7h-35l1.1,1.3h33.9v22.9h-35l26.2,31.3H-46v-20.3l-38.6-46L-83.2,336.6z"/>
	<path id="Versions_3_" fill="#FFFFFF" d="M-84.6,333.6h-21.5l-1.3,2.7h24.2L-84.6,333.6z M-79.2,341.7h-32.3l-1.4,2.7h35
		L-79.2,341.7L-79.2,341.7z M-81.9,337.6h-26.9l-1.4,2.7h29.6L-81.9,337.6L-81.9,337.6z M-112.8,368.6h35v-22.9h-35
		C-112.8,345.7-112.8,368.6-112.8,368.6z M-103.4,353.8h2.7v2.7c0,0,0.8,1.4,1.9,1.4h7.1c1.1,0,1.9-0.5,1.9-1.4v-2.7h2.7v2.7
		c0,2.3-1.9,4-4.3,4H-99c-2.4,0-4.3-1.8-4.3-4C-103.3,354.2-103.4,353.8-103.4,353.8L-103.4,353.8z"/>
	<text transform="matrix(1 0 0 1 -121.727 389.89)" fill="#FFFFFF" font-family="'ArialMT'" font-size="13">Archives</text>
</g>
<g id="directories">
	<path d="M-44,301.9h97v98h-97V301.9z"/>
	<path id="dir-shadow" opacity="0.5" fill="#FFFFFF" d="M26.8,338.4c0.2,0.3,0.4,0.6,0.4,1v27.8c0,0.9-0.8,1.7-1.7,1.7h-43.1
		c-0.6,0-1.1-0.3-1.4-0.7l26.8,32H53v-30.6L26.8,338.4L26.8,338.4z"/>
	<path fill="#FFFFFF" d="M25.4,337.4H-0.2l-2.2-2.9c-0.4-0.5-1.2-0.9-1.8-0.9h-11.2c-0.6,0-1.4,0.4-1.8,0.9l-2.2,2.9v29.5
		c0,0.9,0.8,1.7,1.7,1.7h43.2c0.9,0,1.7-0.8,1.7-1.7v-27.8C27.2,338.2,26.4,337.4,25.4,337.4L25.4,337.4z"/>
	<text transform="matrix(1 0 0 1 -39.499 389.89)" fill="#FFFFFF" font-family="'ArialMT'" font-size="12">File Directories</text>
</g>
<g id="sharefile">
	<path d="M55,301.9h97v98H55V301.9z"/>
	<path id="sharefile-shadow" opacity="0.5" fill="#FFFFFF" d="M122,335.1c-0.8-0.9-2-1.4-3.3-1.4c-2.5,0-4.6,2-4.6,4.5
		c0,2,1.3,3.6,3.1,4.2l-2,0.1l-1.7,1.7l-7.5-8.9c-0.8-1-2.1-1.6-3.5-1.6c-2.5,0-4.6,2-4.6,4.5c0,1.9,1.3,3.6,3.1,4.2l-2,0.1
		l-1.6,1.8l-7.4-8.8c-0.8-1-2.1-1.7-3.6-1.7c-2.5,0-4.6,2-4.6,4.5c0,2,1.3,3.6,3.1,4.2l-2,0.1l-5.2,4.8v3.9l3.6,4.3
		c-1.3,3.4-3.1,9.1-3.1,13.2l26.5,31.5H152v-29.4L122,335.1L122,335.1z"/>
	<path fill="#FFFFFF" d="M127.3,346.9l-5.2-4.8l-2-0.1c1.8-0.6,3.1-2.3,3.1-4.2c0-2.5-2-4.5-4.5-4.5s-4.6,2-4.6,4.5
		c0,1.9,1.3,3.6,3.1,4.2l-2,0.1l-4.8,4.8l-4.4-4.8l-2-0.1c1.8-0.6,3.1-2.3,3.1-4.2c0-2.5-2.1-4.5-4.6-4.5c-2.5,0-4.6,2-4.6,4.5
		c0,2,1.3,3.6,3.1,4.2l-2,0.1l-4.4,4.8l-4.8-4.8l-2-0.1c1.8-0.6,3.1-2.3,3.1-4.2c0-2.5-2.1-4.5-4.6-4.5s-4.6,2-4.6,4.5
		c0,1.9,1.3,3.6,3.1,4.2l-2,0.1l-5.2,4.8v3.9l4.9-4.1l0,5.4c0,0-4.3,9.9-4.3,16.2h3.1c0,0,2.8-10.7,5.1-13.8
		c2.3,3.1,5.1,13.8,5.1,13.8h3.2c0-6.3-4.5-16.2-4.5-16.2l0-5.4l4.5,4.1l4.1-4l0,5.4c0,0-4.3,9.9-4.3,16.2h3.1
		c0,0,2.8-10.7,5.1-13.8c2.3,3.1,5.1,13.8,5.1,13.8h3.1c0-6.3-4.3-16.2-4.3-16.2l0-5.4l4.1,4l4.5-4l0,5.4c0,0-4.3,9.9-4.3,16.2h3.1
		c0,0,2.8-10.7,5.1-13.8c2.3,3.1,5.1,13.8,5.1,13.8h3.1c0-6.3-4.3-16.2-4.3-16.2l0-5.4l4.9,4.1L127.3,346.9L127.3,346.9z"/>
	<text transform="matrix(1 0 0 1 76.407 389.89)" fill="#FFFFFF" font-family="'ArialMT'" font-size="12">Sharefile</text>
</g>
<g id="styleguide">
	<path d="M-145,401.9h99v99h-99V401.9z"/>
	<path id="styleguide-shadow" opacity="0.5" fill="#FFFFFF" d="M-82.7,441.2c0.4,0.4,0.7,0.8,1.1,1.2c3.8,4.7,5,9.6,4.2,13.6
		c-0.3,1.3-2.5,3-3.9,0.3c-2.4-4.6-3.5-2.2-3.6-0.3c0,1.7,2.1,6,2.2,7.4c0.1,3.5-2.4,4.5-3.1,4.8c-7.3,3.1-16.1,0.3-22.4-6.1
		c-0.4-0.4-0.7-0.7-1-1.1l33.8,40.2H-46V485L-82.7,441.2z"/>
	<path id="Palette_1_" fill="#FFFFFF" d="M-82.8,463.1c-0.1-1.5-2.2-5.8-2.2-7.4c0.1-1.9,1.2-4.2,3.6,0.3c1.4,2.7,3.6,1,3.9-0.3
		c0.8-4-0.4-8.9-4.2-13.6c-6.6-8.2-18.2-10.4-25.8-5c-7.7,5.4-7.8,17.6-0.8,24.7c6.4,6.4,15.1,9.2,22.5,6.1
		C-85.1,467.6-82.6,466.6-82.8,463.1L-82.8,463.1z M-103.4,439.4c1.4-1,3.3-0.6,4.3,0.7c1,1.4,0.6,3.3-0.8,4.3
		c-1.4,1-3.3,0.6-4.3-0.7C-105.1,442.3-104.8,440.4-103.4,439.4z M-109.3,451.9c-1-1.4-0.6-3.3,0.7-4.3c1.4-1,3.3-0.6,4.3,0.7
		c1,1.4,0.6,3.3-0.7,4.3C-106.4,453.6-108.4,453.3-109.3,451.9L-109.3,451.9z M-94.4,443.9c-1-1.4-0.6-3.3,0.8-4.3
		c1.4-1,3.3-0.6,4.3,0.7c1,1.4,0.6,3.3-0.8,4.3C-91.5,445.6-93.4,445.3-94.4,443.9L-94.4,443.9z M-104.8,459.7
		c-1-1.4-0.6-3.3,0.7-4.3c1.4-1,3.3-0.6,4.3,0.8c1,1.4,0.7,3.3-0.7,4.3C-101.9,461.5-103.8,461.1-104.8,459.7L-104.8,459.7z"/>
	<text transform="matrix(1 0 0 1 -140.05 490.89)" fill="#FFFFFF" font-family="'ArialMT'" font-size="13">BVN Styleguide</text>
</g>
<g id="unpaid">
	<path d="M-44,401.9h97v99h-97V401.9z"/>
	<path id="unpaid-shadow" opacity="0.5" fill="#FFFFFF" d="M17.1,440.5c-3.2-3.7-7.9-6-13.2-6c-9.7,0-17.5,7.8-17.5,17.5
		c0,4.2,1.5,8,3.9,11l32,38.2H53v-17.9C53,483.3,17.1,440.5,17.1,440.5z"/>
	<path fill="#FFFFFF" d="M3.9,434.2c-9.7,0-17.5,7.8-17.5,17.5s7.8,17.5,17.5,17.5c9.7,0,17.5-7.8,17.5-17.5S13.5,434.2,3.9,434.2z
		 M3.9,465.7c-7.7,0-14-6.3-14-14c0-3.2,1.1-6.2,2.9-8.6l3.3,3.3v0.1c0,1.4,0.4,2.6,1.3,3.5c0.9,1,2.3,1.8,4.3,2.6l1,0.4v4.9
		c-0.7-0.1-2.1-0.3-3.4-0.6c-1.3-0.4-2.1-0.8-3.3-1.2v4.1c1.9,0.9,4.1,1.3,6.6,1.4v3.3H5v-3.4c1.9-0.2,3.6-0.7,4.8-1.6l2.7,2.7
		C10.1,464.6,7.1,465.7,3.9,465.7L3.9,465.7z M2.8,448.2l-2-2c0.1-0.7,0.9-1.1,2-1.3L2.8,448.2L2.8,448.2z M6.7,457.1
		c-0.3,0.4-1,0.7-1.8,0.8v-2.6L6.7,457.1L6.7,457.1z M14.9,460.3l-3.2-3.2c0.1-0.4,0.1-0.8,0.1-1.2c0-0.9-0.2-1.7-0.6-2.4
		c-0.4-0.7-1-1.3-1.9-1.9c-0.9-0.6-2.5-1.2-4.3-2v-4.6c1.8,0.1,3.4,0.5,5,1.2l1.5-3.6c-1.9-0.9-3.9-1.3-6.5-1.4v-2.2H2.8v2.3
		c-1.9,0.2-3.7,0.8-4.9,1.8c-0.1,0.1-0.1,0.1-0.2,0.2l-2.4-2.4c2.4-1.8,5.3-2.9,8.6-2.9c7.7,0,14,6.3,14,14
		C17.8,454.9,16.7,457.9,14.9,460.3L14.9,460.3z"/>
	<text transform="matrix(1 0 0 1 -37.705 490.89)" fill="#FFFFFF" font-family="'ArialMT'" font-size="12">Unpaid invoices</text>
</g>
<g id="invoicing">
	<path id="bg_8_" fill="#1D1D1B" d="M55,401.9h97v99H55V401.9z"/>
	<path id="invoice-shadow" opacity="0.5" fill="#FFFFFF" d="M117.8,437.1c0.2,0.3,0.4,0.7,0.4,1c0,2-4.1,3.7-9.2,3.7
		c-4.1,0-7.5-1.1-8.7-2.5l3,3.6c1.6,0.5,3.6,0.8,5.7,0.8c5.1,0,9.2-1.6,9.2-3.7v3.7c0,2-4.1,3.7-9.2,3.7c-0.9,0-1.8,0-2.6-0.1
		c-1.2-1.5-3.6-2.7-6.6-3.2l1.9,2.3c2.2,0.7,3.6,1.7,3.6,2.9c0,1.9-3.7,3.5-8.4,3.7l-3.1-0.1c-3-0.3-5.4-1.2-6.4-2.3l2.5,3l-0.3,0.2
		c1.6,0.6,3.9,1,6.4,1c5.1,0,9.2-1.7,9.2-3.7v3.7c0,2-4.1,3.7-9.2,3.7c-4.1,0-7.5-1-8.7-2.5l2.5,2.9l-0.3,0.3c1.7,0.7,4,1.1,6.6,1.1
		c5.1,0,9.2-1.7,9.2-3.7v3.7c0,2-4.1,3.7-9.2,3.7c-3.8,0-7-0.9-8.4-2.2l2.6,3.1h-0.1c1.6,0.5,3.6,0.8,5.8,0.8c5.1,0,9.2-1.7,9.2-3.7
		v3.7c0,2.1-4.1,3.7-9.2,3.7c-3.9,0-7.2-0.9-8.5-2.3l28.5,34h36v-23.3l-25.7-30.7L117.8,437.1L117.8,437.1z M118.2,460.3
		c0,2-4.1,3.7-9.2,3.7c-0.6,0-1.2,0-1.8-0.1v-3.7c0.6,0,1.2,0.1,1.8,0.1c5.1,0,9.2-1.7,9.2-3.7V460.3z M118.2,454.8
		c0,2-4.1,3.7-9.2,3.7c-0.6,0-1.2,0-1.8-0.1v-3.7c0.6,0.1,1.2,0.1,1.8,0.1c5.1,0,9.2-1.6,9.2-3.7V454.8z M118.2,449.2
		c0,2-4.1,3.7-9.2,3.7c-0.6,0-1.2,0-1.9-0.1v-3.7c0.6,0.1,1.2,0.1,1.8,0.1c5.1,0,9.2-1.6,9.2-3.7L118.2,449.2z M87.2,450.2
		C87.2,450.3,87.2,450.2,87.2,450.2z"/>
	<g>
		<path fill="#FFFFFF" stroke="#000000" stroke-width="0.25" stroke-miterlimit="10" d="M99.8,437.9c0-2,4.1-3.7,9.2-3.7
			c5.1,0,9.2,1.6,9.2,3.7s-4.1,3.7-9.2,3.7C103.9,441.6,99.8,439.9,99.8,437.9L99.8,437.9z M109,460c-0.6,0-1.2,0-1.8-0.1v3.7
			c0.6,0,1.2,0.1,1.8,0.1c5.1,0,9.2-1.6,9.2-3.7v-3.7C118.2,458.3,114.1,460,109,460L109,460z M109,448.9c-0.6,0-1.2,0-1.8-0.1v3.7
			c0.6,0,1.2,0.1,1.9,0.1c5.1,0,9.2-1.6,9.2-3.7v-3.7C118.2,447.3,114,448.9,109,448.9L109,448.9z M109,443.4
			c-5.1,0-9.2-1.6-9.2-3.7v3.7c0,0.1,0,0.2,0,0.3c3,0.5,5.4,1.7,6.6,3.2c0.8,0.1,1.7,0.1,2.6,0.1c5.1,0,9.2-1.7,9.2-3.7v-3.7
			C118.2,441.8,114.1,443.4,109,443.4L109,443.4z M109,454.5c-0.6,0-1.2,0-1.8-0.1v3.7c0.6,0,1.2,0.1,1.8,0.1c5.1,0,9.2-1.6,9.2-3.7
			v-3.7C118.2,452.8,114.1,454.5,109,454.5L109,454.5z M105.3,448.9c0,2-4.1,3.7-9.2,3.7c-5.1,0-9.2-1.6-9.2-3.7
			c0-2,4.1-3.7,9.2-3.7S105.3,446.9,105.3,448.9L105.3,448.9z M96.1,454.5c-5.1,0-9.2-1.6-9.2-3.7v3.7c0,2,4.1,3.7,9.2,3.7
			s9.2-1.6,9.2-3.7v-3.7C105.3,452.8,101.2,454.5,96.1,454.5z M96.1,460c-5.1,0-9.2-1.7-9.2-3.7v3.7c0,2,4.1,3.7,9.2,3.7
			s9.2-1.6,9.2-3.7v-3.7C105.3,458.3,101.2,460,96.1,460L96.1,460z M96.1,465.5c-5.1,0-9.2-1.6-9.2-3.7v3.7c0,2,4.1,3.7,9.2,3.7
			s9.2-1.6,9.2-3.7v-3.7C105.3,463.8,101.2,465.5,96.1,465.5L96.1,465.5z"/>
	</g>
	<text transform="matrix(1 0 0 1 79.115 490.89)" fill="#FFFFFF" font-family="'ArialMT'" font-size="12">Invoicing</text>
</g>
<g id="office-manual">
	<path d="M-145,502.9h99v97h-99V502.9z"/>
	<path id="om-shadow" opacity="0.5" fill="#FFFFFF" d="M-110.7,549.2l0.1,0.2C-110.6,549.4-110.6,549.3-110.7,549.2z M-109.6,549.8
		c-0.4,0-0.7-0.1-0.9-0.4l3.5,4.2v-3.8H-109.6z M-107,543.1h-2.6c-0.4,0-0.7-0.2-1-0.5l3.6,4.3V543.1z M-80.3,535.4
		c0.4,0.5,0.6,1,0.6,1.7v29.4c0,1.5-1.2,2.8-2.8,2.8h-21.7c-0.8,0-1.6-0.4-2.1-1l26.7,31.8H-46v-23.8L-80.3,535.4z M-107,556.5h-2.5
		c-0.4,0-0.8-0.2-1-0.5l3.6,4.3L-107,556.5z M-106.9,567.1c0-0.2-0.1-0.4-0.1-0.6v-3.3h-2.6c-0.3,0-0.6-0.1-0.8-0.3L-106.9,567.1
		L-106.9,567.1z"/>
	<path fill="#FFFFFF" d="M-82.5,534h-21.8c-1.5,0-2.8,1.2-2.8,2.8v3.3h2.6c0.7,0,1.3,0.6,1.3,1.4v0.1h-7.9c0,0.7,0.6,1.3,1.3,1.3
		h2.6v4h2.6c0.7,0,1.3,0.6,1.3,1.3v0.1h-7.9c0,0.7,0.6,1.3,1.3,1.3h2.6v4h2.6c0.7,0,1.3,0.6,1.3,1.3v0h-7.9c0,0.7,0.6,1.3,1.3,1.3
		h2.5v4h2.6c0.7,0,1.3,0.6,1.3,1.3v0.1h-7.9c0,0.7,0.6,1.3,1.3,1.3h2.6v3.3c0,1.5,1.2,2.8,2.8,2.8h21.7c1.5,0,2.8-1.2,2.8-2.8v-29.4
		C-79.7,535.3-81,534-82.5,534z M-84.8,549.2h-14c-0.6,0-1.1-0.5-1.1-1.1c0-0.6,0.5-1.1,1.1-1.1h14c0.6,0,1.1,0.5,1.1,1.1
		C-83.7,548.7-84.2,549.2-84.8,549.2z M-84.8,542.5h-14c-0.6,0-1.1-0.5-1.1-1.1c0-0.6,0.5-1.1,1.1-1.1h14c0.6,0,1.1,0.5,1.1,1.1
		C-83.7,542-84.2,542.5-84.8,542.5z"/>
	<text transform="matrix(1 0 0 1 -137.216 589.89)" fill="#FFFFFF" font-family="'ArialMT'" font-size="13">Office Manual</text>
</g>
<g id="job-numbers">
	<path d="M-44,502.9h97v97h-97V502.9z"/>
	<path id="jobnum-shadow" opacity="0.5" fill="#FFFFFF" d="M20.3,535.9c0.6,0.8,1,1.7,1,2.8v3.5h-35l0.5,0.6h34.5V565
		c0,2.4-1.9,4.3-4.3,4.3H-9.4c-1.3,0-2.4-0.6-3.2-1.4l27.1,32.3H53v-25.4L20.3,535.9L20.3,535.9z"/>
	<g>
		<path fill="#FFFFFF" d="M17.1,534H-9.3c-2.4,0-4.3,1.9-4.3,4.3v3.5h35v-3.5C21.4,536,19.4,534,17.1,534L17.1,534z M13.6,538.6
			h-1.2v-1.2h1.2V538.6z M16.2,538.6h-1.2v-1.2h1.2V538.6z M18.5,538.6h-1.2v-1.2h1.2V538.6z M-13.6,542.5v22.3
			c0,2.4,1.9,4.3,4.3,4.3H17c2.4,0,4.3-1.9,4.3-4.3v-22.2L-13.6,542.5L-13.6,542.5z M-7.7,562h-2.1V560h2.1V562z M-7.7,556.6h-2.1
			v-2.1h2.1V556.6z M-7.7,550.8h-2.1v-2.1h2.1V550.8L-7.7,550.8z M17.6,562H-4.5V560h22.1V562z M17.6,556.7H-4.5v-2.1h22.1V556.7z
			 M17.6,550.8H-4.5v-2.1h22.1V550.8L17.6,550.8z"/>
	</g>
	<text transform="matrix(1 0 0 1 -30.655 589.89)" fill="#FFFFFF" font-family="'ArialMT'" font-size="12">Job Numbers</text>
</g>
<g id="echosign">
	<path d="M55,502.9h97v97H55V502.9z"/>
	<path id="echosign-shadow" opacity="0.5" fill="#FFFFFF" d="M102.6,545l-6.6,5.5l-4.9,2.2l-2.5,6.9c-0.5,1.5-2,2.4-3.5,2.2
		c-0.3,0-0.6-0.1-0.9-0.2l-0.3-0.1h-0.1l-0.3-0.1l-0.2-0.1h-0.1l-0.2-0.2l-0.1-0.1c0-0.1-0.1-0.1-0.1-0.2l1.5,1.8
		c0.2,0,0.4,0.1,0.6,0.1c1.9,0.2,3.7-1,4.3-2.8l1.2-3.4l15.3-12.8l-0.7-0.9L102.6,545L102.6,545z M119.1,537.9l-23.7,19.9l-0.7-0.1
		c-2.7-0.2-5,1.8-5.3,4.4v0.6l-2.8,2.4c-0.4,0.4-1,0.5-1.5,0.5s-1-0.3-1.4-0.7l0.5,0.9l-1.7-2.1c0,0.6,0.2,1.2,0.6,1.6
		c0.4,0.5,1,0.8,1.6,0.9l-4.2,2l-0.4-0.4l-0.3,0.2l0.3,0.3l-1.7,0.8l25.9,30.9H152v-26.2l-32.6-38.9
		C120.1,535.9,119.9,537.2,119.1,537.9L119.1,537.9z"/>
	<g>
		<path fill="#FFFFFF" d="M94.7,557.5l0.7,0.1l23.7-19.9c0.9-0.7,1-2,0.3-2.9l0,0c-0.7-0.9-2-1-2.9-0.3l-25.9,21.7l-1.2,3.3
			c-0.6,1.8-2.4,2.9-4.3,2.8c-0.4,0-0.7-0.1-1.1-0.2l-0.2-0.1c-0.7,0.8-0.7,1.9-0.1,2.7c0.4,0.4,0.9,0.7,1.4,0.7
			c0.5,0,1-0.1,1.5-0.5l2.8-2.4c0-0.2,0-0.4,0-0.6C89.6,559.3,92,557.3,94.7,557.5z"/>
		<polygon fill="#FFFFFF" points="118.5,550.1 118.5,568.7 126.5,568.7 126.5,550.1 		"/>
		<path fill="#FFFFFF" d="M83,560.4c0,0.1,0.1,0.1,0.1,0.2l0.1,0.1l0.2,0.2c0,0,0,0,0.1,0l0.2,0.1c0,0,0,0,0,0l0.3,0.2l0.1,0
			l0.3,0.1c0.3,0.1,0.6,0.2,0.9,0.2c1.5,0.1,3-0.8,3.5-2.2l2.5-6.9l4.9-2.2l9.1-7.6h0l-1.8-1.4c-1-0.9-2.5-1.1-3.8-0.5l-7.4,3.3
			l-4.7,2.1c-1,0.5-1.7,1.3-2,2.2l-0.2,0.4l-3,8.4C81.8,558.1,82.1,559.4,83,560.4C82.9,560.3,82.9,560.4,83,560.4z"/>
		<path fill="#FFFFFF" d="M83.1,565.1c-0.4-0.5-0.6-1.1-0.6-1.6l-2.7,3.7l0.7,0.9l4.2-2l0,0C84.1,565.9,83.5,565.6,83.1,565.1z"/>
		<polygon fill="#FFFFFF" points="79.6,567.5 78.5,569 80.2,568.2 79.6,567.5 		"/>
		<path fill="#FFFFFF" d="M102.8,552.8c0.1,0.1,0.1,0.1,0.2,0.2l3,2.2c0.4,0.4,0.7,1,0.6,1.7c-0.1,1.1-1,1.9-2.1,1.9l-9.8-0.4v0
			c-2.2-0.2-4.2,1.5-4.4,3.7c-0.2,2.2,1.5,4.2,3.7,4.4l23.2,0.9v-15.8l-6.7-5.1L102.8,552.8z"/>
	</g>
	<text transform="matrix(1 0 0 1 78.405 589.89)" fill="#FFFFFF" font-family="'ArialMT'" font-size="12">Echosign</text>
</g>
<g id="wiki">
	<path d="M-145,601.9h99v97h-99V601.9z"/>
	<path id="wiki-shadow" opacity="0.5" fill="#FFFFFF" d="M-73.9,640.7c-1.2-1.4-2.9-2.3-4.8-2.6c-1.7-2.7-4.8-4.4-8.2-3.9
		c-0.7,0.1-1.3,0.2-1.9,0.5c-1.7-1.2-3.7-1.7-5.9-1.5c-1.7,0.2-3.2,0.9-4.4,2c-1.2-0.5-2.6-0.7-4-0.5c-2.8,0.4-5.2,2.1-6.4,4.5h-0.6
		c-3.9,0.5-6.9,3.7-7.2,7.5c-2.8,1.7-4.5,5-4.1,8.4c0.3,2,1.2,3.7,2.5,5l32.7,38.9h40v-25.2L-73.9,640.7L-73.9,640.7z"/>
	<path fill="#FFFFFF" d="M-69.4,651.9c-0.2-1.9-1.1-3.5-2.3-4.8c0.1-0.7,0.1-1.4,0-2.2c-0.5-3.7-3.4-6.5-6.9-7.1
		c-1.7-2.7-4.8-4.3-8.2-3.9c-0.7,0.1-1.3,0.2-1.9,0.5c-1.7-1.2-3.7-1.8-5.9-1.5c-1.7,0.2-3.2,0.9-4.4,2c-1.2-0.5-2.6-0.6-4-0.5
		c-2.8,0.4-5.2,2.1-6.4,4.5c-0.2,0-0.4,0-0.6,0c-3.9,0.5-6.9,3.7-7.2,7.5c-2.8,1.7-4.6,5-4.1,8.4c0.6,4.7,4.9,7.9,9.5,7.3
		c1.1-0.2,2.2-0.5,3.1-1.1c0.2-2.6,1.2-6.9,5.5-9c0.3-0.9,1.3-4,4.1-5.9c0-0.5,0-1.3-0.1-1.7l0-0.1c-0.1-0.6-0.4-1.1-0.8-1.5
		c-0.3,0.2-0.6,0.5-0.8,0.9c-0.3,0.4-0.5,0.9-0.6,1.4c0,0.3-0.3,0.5-0.6,0.4c-0.3-0.1-0.5-0.3-0.4-0.6c0.1-0.7,0.4-1.3,0.7-1.8
		c0.2-0.4,0.5-0.7,0.8-1c-1.9-1.2-4.4-0.7-5.6,1.2h0v0c-0.5,0.7-1.1,1.2-1.7,1.6c0.3,1,0.9,1.8,1.7,2.3c0,0,0,0,0,0c0,0,0,0,0,0
		c0.8,0.5,1.8,0.7,2.9,0.5c0.3-0.1,0.6,0.1,0.6,0.4c0,0.1,0,0.3-0.1,0.4c-0.1,0.1-0.2,0.2-0.4,0.2c-1.2,0.2-2.3,0-3.3-0.5
		c-0.2,0.2-0.4,0.4-0.5,0.7c-0.3,0.5-0.6,1.2-0.6,1.9c0,0.1,0,0.2-0.1,0.2c-0.1,0.2-0.3,0.3-0.5,0.3c-0.3,0-0.5-0.3-0.5-0.6
		c0.1-0.9,0.4-1.7,0.8-2.4c0.2-0.2,0.3-0.5,0.5-0.7c-0.8-0.6-1.3-1.4-1.6-2.4c-0.8,0.3-1.6,0.3-2.4,0.2c0,1.1-0.3,2.2-0.8,3.1
		c-0.2,0.3-0.5,0.6-0.7,0.9c1.9,1.7,2.4,4.5,0.9,6.7l0,0c-0.6,0.9-0.8,2-0.6,3c0,0.2,0,0.3-0.1,0.4c-0.1,0.1-0.2,0.2-0.3,0.2
		c-0.3,0.1-0.6-0.1-0.6-0.4c-0.3-1.3,0-2.7,0.7-3.8l0-0.1h0c0.2-0.3,0.4-0.6,0.5-1c-0.8,0-1.7,0.3-2.4,0.9c-0.2,0.2-0.6,0.2-0.8-0.1
		c-0.2-0.2-0.2-0.6,0.1-0.8c0.9-0.8,2.1-1.2,3.3-1.2c0.1-1.3-0.5-2.6-1.6-3.4c-0.5,0.3-1.1,0.6-1.7,0.7c-0.3,0-0.6-0.1-0.6-0.4
		c-0.1-0.3,0.1-0.6,0.4-0.6c0.6-0.1,1.1-0.4,1.6-0.7c0.4-0.3,0.7-0.6,1-1c0.5-0.8,0.8-1.8,0.6-2.8c-0.3-0.1-0.6-0.3-0.9-0.5
		c-0.2-0.2-0.3-0.5-0.1-0.8c0.2-0.2,0.5-0.3,0.7-0.1c1.7,1.1,4,0.8,5.3-0.8c-0.9-0.8-1.5-1.8-1.8-2.9c-0.1-0.3,0.1-0.6,0.4-0.7
		c0.3-0.1,0.6,0.1,0.7,0.4c0.2,0.9,0.7,1.7,1.4,2.3c1.1-1.3,2.8-2,4.4-1.9c0.4-0.9,0.5-1.9,0.3-2.8c-0.1-0.3,0.1-0.6,0.4-0.7
		c0.3-0.1,0.6,0.1,0.7,0.4c0.3,1,0.2,2.2-0.2,3.3c0.5,0.1,0.9,0.3,1.3,0.6c0.9,0.6,1.5,1.3,1.9,2.1c0.9-0.6,1.9-0.9,3.1-0.8
		c0.3,0,0.5,0.3,0.5,0.6c0,0.1,0,0.2-0.1,0.3c-0.1,0.2-0.3,0.3-0.5,0.3c-1-0.1-2,0.3-2.7,0.8c0.1,0.3,0.1,0.7,0.1,1.1
		c0.7-0.3,1.5-0.6,2.3-0.7c0.7-0.8,3.6-3.8,7.9-2.7c0.3,0.1,0.5,0.3,0.4,0.6c-0.1,0.3-0.3,0.5-0.6,0.4c-4.2-1-6.9,2.4-7,2.5
		l-0.1,0.2l-0.2,0c-5.6,0.8-6.9,6.5-6.9,6.7l0,0.3l-0.2,0.1c-4.3,2.1-5.1,6.5-5.1,8.8c0.2,0.4,0.5,0.8,0.7,1.1
		c2.1,2.8,5.6,3.9,8.8,3c2.9,2.5,7.3,2.7,10.4,0.2c0.2-0.1,0.3-0.3,0.5-0.4c2.5,0.8,5.4,0.4,7.7-1.3c1.1-0.9,2-2,2.5-3.2
		c1.6-0.1,3.1-0.7,4.5-1.7c1-0.7,1.8-1.7,2.3-2.8c0.4-0.8,0.7-1.7,0.8-2.5C-69.3,653.5-69.3,652.7-69.4,651.9L-69.4,651.9z
		 M-77.6,648c-1,0.7-2.3,0.9-3.4,0.8c-0.2,1.3,0.2,2.6,1.2,3.6c0.5-0.3,1.1-0.4,1.8-0.5c0.3,0,0.6,0.2,0.6,0.5
		c0,0.3-0.2,0.6-0.5,0.6c-0.6,0-1.2,0.2-1.7,0.5c-0.4,0.3-0.8,0.6-1.1,0.9c-0.6,0.8-1,1.7-0.9,2.7c0.3,0.2,0.6,0.3,0.9,0.6
		c0.2,0.2,0.3,0.5,0.1,0.8c-0.2,0.2-0.5,0.3-0.8,0.1c-1.6-1.3-4-1.2-5.5,0.2c0.8,0.9,1.3,2,1.5,3.1c0,0.3-0.2,0.6-0.5,0.6
		c-0.3,0-0.6-0.2-0.6-0.5c-0.1-0.9-0.5-1.7-1.1-2.4c-1.3,1.2-3,1.7-4.7,1.4c-0.5,0.8-0.7,1.8-0.6,2.8c0,0.3-0.2,0.6-0.5,0.6
		s-0.6-0.2-0.6-0.5c-0.2-1.1,0-2.3,0.6-3.3c-0.5-0.2-0.9-0.4-1.3-0.8v0c-0.9-0.7-1.4-1.5-1.7-2.4c-1,0.5-2.1,0.7-3.2,0.5
		c-0.3,0-0.5-0.3-0.4-0.6c0-0.1,0-0.2,0.1-0.3c0.1-0.1,0.3-0.2,0.5-0.2c1,0.2,2,0,2.8-0.5c0.1-0.1,0.3-1.8,0.3-1.9
		c0-0.7-0.4-1.4-0.8-2c-0.1-0.1-0.1-0.3-0.1-0.4c0-0.1,0.1-0.3,0.3-0.4c0.3-0.2,0.6-0.1,0.8,0.2c0.4,0.7,0.7,1.5,0.8,2.3
		c0.1,0.8-0.3,1.6-0.1,2.3l0,0.1c0.1,0.6,0.3,1.1,0.7,1.6c0.3-0.2,0.7-0.5,0.9-0.8c0.3-0.4,0.6-0.9,0.8-1.4c0.1-0.3,0.4-0.5,0.7-0.4
		c0.3,0.1,0.4,0.4,0.3,0.7c-0.2,0.7-0.5,1.2-0.9,1.7c-0.3,0.3-0.6,0.7-1,0.9c1.8,1.4,4.4,1.2,5.8-0.6c0.6-0.7,1.2-1.1,1.9-1.5
		c-0.2-1-0.7-1.9-1.4-2.5l0,0l0,0c-0.8-0.6-1.8-0.9-2.9-0.9c-0.3,0-0.6-0.2-0.6-0.5c0-0.2,0.1-0.3,0.1-0.4c0.1-0.1,0.2-0.2,0.4-0.2
		c1.2-0.1,2.3,0.2,3.3,0.9c0.2-0.2,0.4-0.4,0.6-0.6c0.4-0.5,0.7-1.1,0.9-1.8c0-0.1,0-0.2,0.1-0.2c0.1-0.2,0.3-0.2,0.5-0.2
		c0.3,0.1,0.5,0.4,0.4,0.7c-0.2,0.9-0.6,1.6-1.1,2.3c-0.2,0.2-0.4,0.4-0.6,0.6c0.7,0.7,1.2,1.6,1.4,2.6c0.8-0.2,1.6-0.2,2.4,0.1
		c0.1-1.1,0.5-2.2,1.2-3c0.2-0.3,0.5-0.5,0.8-0.8c-1.7-1.9-1.9-4.8-0.2-6.9l0,0c0.7-0.9,1-1.9,0.9-3c0-0.1,0-0.3,0.1-0.4
		c0.1-0.1,0.2-0.2,0.4-0.2c0.3,0,0.6,0.2,0.6,0.5c0.1,1.3-0.3,2.7-1.2,3.8l0,0c-0.2,0.3-0.4,0.6-0.6,0.9c0.8,0,1.7-0.2,2.5-0.7
		c0.3-0.2,0.6-0.1,0.8,0.2C-77.3,647.5-77.3,647.8-77.6,648L-77.6,648z"/>
	<text transform="matrix(1 0 0 1 -107.179 688.89)" fill="#FFFFFF" font-family="'ArialMT'" font-size="13">Wiki</text>
</g>
<g id="epicor">
	<path d="M-44,601.9h97v97h-97V601.9z"/>
	<path id="epicor-shadow" opacity="0.5" fill="#FFFFFF" d="M10.5,635.1c0.3,0.4,0.4,0.8,0.4,1.3c0,1.3-1,2.3-2.3,2.3H-1
		c-0.6,0-1.2-0.2-1.6-0.6l1.8,2.2c1.8-0.7,3.8-1,5.8-0.8c7.9,0.6,13.8,7.7,13.1,15.9c-0.7,8.2-7.6,14.4-15.5,13.8
		c-4-0.3-7.5-2.3-9.8-5.2l29.6,35.3H53v-13.6L10.5,635.1L10.5,635.1z M-4.8,640.8c0.1,0.4,0,0.8-0.3,1.1l-1.9,1.8
		c-0.4,0.4-1.1,0.4-1.5,0l-0.5-0.4l1.6,1.9c1-1.3,2.2-2.4,3.5-3.3L-4.8,640.8z"/>
	<path id="Your_Icon_5_" fill="#FFFFFF" d="M5,639.1c-7.9-0.6-14.8,5.6-15.5,13.8c-0.6,8.2,5.2,15.3,13.1,15.9
		c7.9,0.6,14.8-5.6,15.5-13.8C18.8,646.8,12.9,639.7,5,639.1L5,639.1z M13.4,659.9l-10.6-5.1l-0.1-9.9h1.8l0,8.8l9.6,4.6L13.4,659.9
		L13.4,659.9z M11,636.1c0,1.3-1,2.3-2.3,2.3H-1c-1.3,0-2.3-1-2.3-2.3s1-2.3,2.3-2.3h9.6C9.9,633.9,11,634.9,11,636.1L11,636.1z
		 M-5,640.1c0.4,0.4,0.4,1.1,0,1.5l-1.9,1.8c-0.4,0.4-1.1,0.4-1.5,0l-0.9-1c-0.4-0.4-0.4-1.1,0-1.5l1.9-1.8c0.4-0.4,1.1-0.4,1.5,0
		L-5,640.1L-5,640.1z"/>
	<text transform="matrix(1 0 0 1 -13.471 688.89)" fill="#FFFFFF" font-family="'ArialMT'" font-size="12">Epicor</text>
</g>
<g id="support">
	<path d="M55,601.9h97v97H55V601.9z"/>
	<path id="support-shadow" opacity="0.5" fill="#FFFFFF" d="M116,639.4c2.5,3,4.1,6.9,4.1,11.2c0,9.7-7.8,17.5-17.5,17.5
		c-5.4,0-10.2-2.4-13.4-6.2l31.3,37.3H152v-16.9L116,639.4z"/>
	<path id="help_2_" fill="#FFFFFF" d="M90.2,638c-6.8,6.8-6.8,17.9,0,24.7c6.8,6.8,17.9,6.8,24.8,0c6.8-6.8,6.8-17.9,0-24.8
		C108.1,631.1,97.1,631.1,90.2,638L90.2,638z M114.1,638.8c1,1,1.8,2,2.4,3.2l-4.7,4.7c-0.5-1.2-1.2-2.4-2.2-3.4
		c-1-1-2.1-1.7-3.4-2.2l4.7-4.8C112.1,637,113.2,637.8,114.1,638.8L114.1,638.8z M96.4,656.6c-3.4-3.5-3.4-9,0-12.5
		c3.4-3.4,9-3.4,12.4,0c3.4,3.4,3.4,9,0,12.5C105.4,660,99.8,660,96.4,656.6L96.4,656.6z M91,661.9c-1-1-1.8-2-2.4-3.2l4.7-4.7
		c0.5,1.2,1.2,2.4,2.2,3.4c1,1,2.1,1.7,3.4,2.2l-4.7,4.7C93.1,663.7,92,662.9,91,661.9L91,661.9z M94.2,636.4l4.7,4.7
		c-1.2,0.5-2.4,1.2-3.4,2.2c-1,1-1.7,2.2-2.2,3.4l-4.7-4.8c0.7-1.1,1.5-2.2,2.4-3.2C92,637.8,93.1,637,94.2,636.4L94.2,636.4z
		 M111,664.4l-4.8-4.8c1.2-0.5,2.4-1.2,3.4-2.2c1-1,1.7-2.2,2.2-3.4l4.7,4.7c-0.7,1.1-1.5,2.2-2.5,3.2
		C113.2,662.9,112.1,663.7,111,664.4L111,664.4z"/>
	<text transform="matrix(1 0 0 1 80.17 688.89)" fill="#FFFFFF" font-family="'ArialMT'" font-size="12">Support</text>
</g>
<g id="tropos">
	<path d="M-146,140.9H4v60h-150V140.9z"/>
	<text transform="matrix(1 0 0 1 -121.882 183.121)" fill="#FFFFFF" font-family="'ArialMT'" font-size="22.13">Tropos</text>
</g>
<g id="bloomfire">
	<path d="M4,141.9h150v59H4V141.9z"/>
	<text transform="matrix(1 0 0 1 28.268 183.121)" fill="#FFFFFF" font-family="'ArialMT'" font-size="22.13">Bloomfire</text>
</g>
</svg>
