<?xml version="1.0" encoding="utf-8"?>
<!-- Generator: Adobe Illustrator 17.0.1, SVG Export Plug-In . SVG Version: 6.00 Build 0)  -->
<!DOCTYPE svg PUBLIC "-//W3C//DTD SVG 1.1//EN" "http://www.w3.org/Graphics/SVG/1.1/DTD/svg11.dtd">
<svg version="1.1" id="grid" xmlns="http://www.w3.org/2000/svg" xmlns:xlink="http://www.w3.org/1999/xlink" x="0px" y="0px"
	 width="301px" height="560px" viewBox="0 0 301 560" enable-background="new 0 0 301 560" xml:space="preserve">
<path id="topbar" fill="#2196F3" d="M301,60c0,0-0.256,0-0.752,0c-16.846,0-282.649,0-299.495,0C0.256,60,0,60,0,60s0-0.177,0-0.51
	C0,53.676,0,7.783,0,0.759C0,0.266,0,0,0,0s0.256,0,0.752,0c16.846,0,282.649,0,299.495,0C300.744,0,301,0,301,0s0,0.266,0,0.759
	c0,7.025,0,52.917,0,58.731C301,59.823,301,60,301,60z"/>
<g id="open-asset">
	<rect id="bg" x="202" y="62" fill="#E1D9D2" width="97" height="97"/>
	<g id="Layer_2_3_">
		<path fill="#FFFFFF" d="M271.098,124.817l-0.071-0.948V95.835c0-0.679-0.513-1.314-1.191-1.314h-1.277
			c-0.256-0.292-0.64-0.465-1.056-0.434l-5.763,0.434h-28.797c-0.677,0-1.192,0.636-1.192,1.314v0.943l-2.614,0.197
			c-0.705,0.053-1.234,0.669-1.18,1.375l2.224,29.547c0.053,0.706,0.668,1.236,1.373,1.183l38.366-2.888
			C270.624,126.139,271.151,125.523,271.098,124.817z M231.75,122.158l-1.735-23.051l1.735-0.131V122.158z M242.173,101.23
			c1.615,0,2.925,1.31,2.925,2.925c0,1.614-1.31,2.924-2.925,2.924c-1.614,0-2.924-1.309-2.924-2.924
			C239.249,102.54,240.558,101.23,242.173,101.23z M232.102,126.841l-0.142-1.883c0.212,0.321,0.566,0.534,0.981,0.534h17.088
			L232.102,126.841z M266.399,120.626h-4.973h-4.992h-9.984h-9.953v-1.88l7.471-5.638l0.02,0.13l4.955,3.012l7.486-10.072
			l6.235,3.744l3.735,8.222V120.626z"/>
	</g>
	<text transform="matrix(1 0 0 1 219.4051 149)" fill="#FFFFFF" font-size="12">Open Asset</text>
</g>
<g id="project-library">
	<rect id="bg_1_" x="103" y="62" fill="#557875" width="97" height="97"/>
	<g>
		<path fill="#FFFFFF" d="M152.522,108.992v19.092h2.8v-8.05h3.5v8.05h9.1v-25.029L152.522,108.992z M158.822,116.883h-3.5v-5.25
			h3.5V116.883z M165.472,125.283h-3.5v-5.25h3.5V125.283z M165.472,116.883h-3.5v-5.25h3.5V116.883z"/>
		<path fill="#FFFFFF" d="M134.322,93.083v35h10.15v-8.05h3.5v8.05h3.15v-35H134.322z M140.972,125.283h-3.5v-5.25h3.5V125.283z
			 M140.972,116.883h-3.5v-5.25h3.5V116.883z M140.972,108.833h-3.5v-5.25h3.5V108.833z M140.972,100.783h-3.5v-5.25h3.5V100.783z
			 M147.972,116.883h-3.5v-5.25h3.5V116.883z M147.972,108.833h-3.5v-5.25h3.5V108.833z M147.972,100.783h-3.5v-5.25h3.5V100.783z"
			/>
	</g>
	<text transform="matrix(1 0 0 1 106.835 149)" fill="#FFFFFF" font-size="12">Project Library</text>
</g>
<g id="phonelist">
	<rect id="bg_2_" x="2" y="62" fill="#967745" width="99" height="97"/>
	<path fill="#FFFFFF" d="M68.464,122.494c-1.983,4.754-6.633,5.587-8.152,5.587c-0.446,0-7.395,0.368-17.383-9.106
		c-8.038-7.625-9.021-15.824-9.106-17.382c-0.083-1.517,0.351-5.324,5.588-8.152c0.649-0.35,1.935-0.506,2.267-0.173
		c0.147,0.147,4.543,7.38,4.658,7.62c0.116,0.239,0.173,0.475,0.173,0.706c0,0.33-0.235,0.743-0.706,1.239
		c-0.471,0.496-0.983,0.95-1.536,1.363c-0.554,0.413-1.065,0.851-1.537,1.313c-0.471,0.462-0.706,0.843-0.706,1.14
		c0.032,0.771,0.664,3.534,5.479,7.765c4.816,4.232,7.136,5.424,7.359,5.507c0.223,0.082,0.409,0.123,0.557,0.123
		c0.298,0,0.678-0.235,1.14-0.706c0.462-0.471,2.017-2.602,2.512-3.073c0.496-0.47,0.909-0.706,1.239-0.706
		c0.231,0,0.466,0.058,0.706,0.173c0.24,0.116,7.481,4.353,7.62,4.495C69.013,120.611,68.748,121.813,68.464,122.494"/>
	<text transform="matrix(1 0 0 1 19.8211 149)" fill="#FFFFFF" font-size="13">Phone List</text>
</g>
<g id="archives">
	<rect id="bg_3_" x="2" y="161" fill="#F0D100" width="99" height="98"/>
	<path id="Versions_3_" fill="#FFFFFF" d="M62.439,192.715H40.901l-1.346,2.692h24.231L62.439,192.715z M67.824,200.792H35.516
		l-1.346,2.692h35L67.824,200.792z M65.132,196.754H38.209l-1.346,2.692h29.615L65.132,196.754z M34.17,227.715h35v-22.885h-35
		V227.715z M43.593,212.908h2.692c0,0,0,1.885,0,2.692s0.808,1.346,1.885,1.346h7.135c1.077,0,1.885-0.538,1.885-1.346
		s0-2.692,0-2.692h2.692c0,0,0,0.404,0,2.692c0,2.288-1.885,4.038-4.308,4.038h-7.538c-2.423,0-4.308-1.75-4.308-4.038
		C43.728,213.312,43.593,212.908,43.593,212.908z"/>
	<text transform="matrix(1 0 0 1 25.2733 249)" fill="#FFFFFF" font-size="13">Archives</text>
</g>
<g id="directories">
	<rect id="bg_4_" x="103" y="161" fill="#1E8260" width="97" height="98"/>
	<path fill="#FFFFFF" d="M172.445,196.527h-25.604l-2.194-2.91c-0.373-0.495-1.186-0.901-1.802-0.901h-4.495
		c-0.621,0-1.636,0-2.26,0h-4.492c-0.621,0-1.433,0.406-1.806,0.901l-2.191,2.91v29.497c0,0.931,0.761,1.691,1.688,1.691h43.157
		c0.934,0,1.695-0.761,1.695-1.691v-27.799C174.14,197.288,173.379,196.527,172.445,196.527z"/>
	<text transform="matrix(1 0 0 1 107.5013 249)" fill="#FFFFFF" font-size="12">File Directories</text>
</g>
<g id="sharefile">
	<rect id="bg_5_" x="202" y="161" fill="#BEE2E9" width="97" height="98"/>
	<path fill="#FFFFFF" d="M274.287,206.02l-5.155-4.772l-1.992-0.107c1.787-0.605,3.072-2.26,3.072-4.214
		c0-2.465-2.044-4.462-4.564-4.462c-2.521,0-4.565,1.998-4.565,4.462c0,1.953,1.285,3.608,3.072,4.214l-1.992,0.107l-4.769,4.772
		l-4.384-4.772l-1.992-0.107c1.787-0.605,3.072-2.26,3.072-4.214c0-2.465-2.044-4.462-4.564-4.462c-2.521,0-4.564,1.998-4.564,4.462
		c0,1.953,1.285,3.608,3.072,4.214l-1.992,0.107l-4.384,4.772l-4.769-4.772l-1.992-0.107c1.787-0.605,3.072-2.26,3.072-4.214
		c0-2.465-2.044-4.462-4.564-4.462s-4.564,1.998-4.564,4.462c0,1.953,1.285,3.608,3.071,4.214l-1.992,0.107l-5.155,4.772v3.894
		l4.849-4.05l-0.033,5.369c0,0-4.335,9.937-4.335,16.232h3.083c0,0,2.794-10.704,5.074-13.78c2.281,3.076,5.074,13.78,5.074,13.78
		h3.245c0-6.296-4.498-16.232-4.498-16.232l-0.033-5.369l4.464,4.05l4.079-4.05l-0.032,5.369c0,0-4.335,9.937-4.335,16.232h3.083
		c0,0,2.794-10.704,5.074-13.78c2.281,3.076,5.074,13.78,5.074,13.78h3.083c0-6.296-4.337-16.232-4.337-16.232l-0.032-5.369
		l4.079,4.05l4.465-4.05l-0.032,5.369c0,0-4.335,9.937-4.335,16.232h3.083c0,0,2.794-10.704,5.074-13.78
		c2.28,3.076,5.074,13.78,5.074,13.78h3.083c0-6.296-4.335-16.232-4.335-16.232l-0.033-5.369l4.85,4.05V206.02z"/>
	<text transform="matrix(1 0 0 1 223.407 249)" fill="#FFFFFF" font-size="12">Sharefile</text>
</g>
<g id="styleguide">
	<rect id="bg_6_" x="2" y="261" fill="#005E97" width="99" height="99"/>
	<path id="Palette_1_" fill="#FFFFFF" d="M64.24,322.251c-0.061-1.449-2.24-5.759-2.188-7.431c0.059-1.896,1.206-4.231,3.593,0.334
		c1.431,2.736,3.627,1.034,3.894-0.298c0.805-4.027-0.39-8.857-4.197-13.59c-6.585-8.184-18.159-10.432-25.845-5.02
		c-7.686,5.413-7.84,17.602-0.827,24.667c6.357,6.401,15.124,9.214,22.454,6.129C61.881,326.723,64.389,325.741,64.24,322.251z
		 M43.65,298.52c1.387-0.977,3.303-0.645,4.28,0.743c0.977,1.387,0.644,3.303-0.743,4.28c-1.388,0.977-3.303,0.645-4.281-0.743
		C41.929,301.413,42.261,299.497,43.65,298.52z M37.661,311.003c-0.977-1.387-0.643-3.303,0.743-4.28
		c1.386-0.977,3.303-0.645,4.28,0.742c0.977,1.388,0.643,3.304-0.743,4.281C40.555,312.723,38.638,312.392,37.661,311.003z
		 M52.572,303.008c-0.978-1.387-0.645-3.304,0.743-4.281c1.387-0.977,3.303-0.644,4.281,0.743c0.977,1.387,0.644,3.303-0.743,4.28
		C55.464,304.728,53.549,304.396,52.572,303.008z M42.18,318.844c-0.977-1.388-0.645-3.305,0.742-4.282
		c1.387-0.977,3.304-0.644,4.281,0.743c0.977,1.388,0.645,3.304-0.743,4.281C45.074,320.563,43.157,320.23,42.18,318.844z"/>
	<text transform="matrix(1 0 0 1 6.9503 350)" fill="#FFFFFF" font-size="13">BVN Styleguide</text>
</g>
<g id="unpaid">
	<rect id="bg_7_" x="103" y="261" fill="#E9ABC8" width="97" height="99"/>
	<g>
		<path fill="#FFFFFF" d="M150.87,293.298c-9.665,0-17.5,7.835-17.5,17.5s7.835,17.5,17.5,17.5c9.664,0,17.5-7.835,17.5-17.5
			S160.534,293.298,150.87,293.298z M150.87,324.781c-7.722,0-13.982-6.26-13.982-13.982c0-3.23,1.096-6.203,2.935-8.571
			l3.302,3.302c-0.001,0.042-0.003,0.084-0.003,0.127c0,1.407,0.43,2.588,1.29,3.542c0.86,0.954,2.282,1.837,4.346,2.65l1.007,0.407
			v4.847c-0.737-0.063-2.109-0.266-3.386-0.61c-1.277-0.344-2.14-0.74-3.245-1.189v4.128c1.842,0.844,4.053,1.293,6.632,1.344v3.284
			h2.211v-3.346c1.842-0.182,3.576-0.709,4.75-1.578l2.712,2.709C157.07,323.685,154.1,324.781,150.87,324.781z M149.765,307.296
			l-1.979-1.979c0.157-0.686,0.874-1.115,1.979-1.286V307.296z M153.749,316.167c-0.342,0.408-1.037,0.684-1.774,0.826v-2.601
			L153.749,316.167z M161.917,319.369l-3.221-3.221c0.082-0.389,0.124-0.8,0.124-1.234c0-0.917-0.201-1.72-0.602-2.408
			c-0.402-0.688-1.038-1.318-1.898-1.892c-0.86-0.573-2.503-1.251-4.345-2.033v-4.613c1.842,0.146,3.384,0.553,5.01,1.22
			l1.467-3.659c-1.928-0.855-3.898-1.334-6.476-1.439v-2.187h-2.211v2.249c-1.842,0.209-3.726,0.8-4.909,1.775
			c-0.077,0.064-0.132,0.129-0.204,0.195l-2.362-2.372c2.367-1.839,5.346-2.934,8.576-2.934c7.722,0,13.985,6.26,13.985,13.982
			C164.85,314.028,163.757,317.001,161.917,319.369z"/>
	</g>
	<text transform="matrix(1 0 0 1 109.295 350)" fill="#FFFFFF" font-size="12">Unpaid invoices</text>
</g>
<g id="invoicing">
	<g id="bg_8_">
		<rect x="202" y="261" fill="#1D1D1B" width="97" height="99"/>
	</g>
	<g>
		<path fill="#FFFFFF" stroke="#000000" stroke-width="0.25" stroke-miterlimit="10" d="M246.763,296.982
			c0-2.035,4.123-3.684,9.211-3.684c5.087,0,9.211,1.65,9.211,3.684s-4.124,3.684-9.211,3.684
			C250.886,300.667,246.763,299.017,246.763,296.982z M255.974,319.088c-0.631,0-1.247-0.025-1.842-0.074v3.684
			c0.595,0.048,1.211,0.074,1.842,0.074c5.087,0,9.211-1.65,9.211-3.684v-3.684C265.184,317.438,261.06,319.088,255.974,319.088z
			 M255.974,308.035c-0.633,0-1.252-0.026-1.849-0.075c0,0.025,0.007,0.049,0.007,0.075v3.611c0.595,0.048,1.211,0.074,1.842,0.074
			c5.087,0,9.211-1.65,9.211-3.684v-3.684C265.184,306.385,261.06,308.035,255.974,308.035z M255.974,302.509
			c-5.087,0-9.211-1.65-9.211-3.684v3.684c0,0.111,0.018,0.221,0.041,0.329c3.016,0.541,5.42,1.715,6.574,3.205
			c0.824,0.097,1.693,0.151,2.595,0.151c5.087,0,9.211-1.65,9.211-3.684v-3.684C265.184,300.859,261.06,302.509,255.974,302.509z
			 M255.974,313.561c-0.631,0-1.247-0.025-1.842-0.074v3.684c0.595,0.048,1.211,0.074,1.842,0.074c5.087,0,9.211-1.65,9.211-3.684
			v-3.684C265.184,311.912,261.06,313.561,255.974,313.561z"/>
		<path fill="#FFFFFF" stroke="#000000" stroke-width="0.25" stroke-miterlimit="10" d="M252.29,308.035
			c0,2.035-4.124,3.684-9.211,3.684c-5.087,0-9.211-1.65-9.211-3.684c0-2.035,4.124-3.684,9.211-3.684
			C248.166,304.351,252.29,306.001,252.29,308.035z M243.079,313.561c-5.087,0-9.211-1.65-9.211-3.684v3.684
			c0,2.035,4.124,3.684,9.211,3.684c5.087,0,9.211-1.65,9.211-3.684v-3.684C252.29,311.912,248.166,313.561,243.079,313.561z
			 M243.079,319.088c-5.087,0-9.211-1.65-9.211-3.684v3.684c0,2.035,4.124,3.684,9.211,3.684c5.087,0,9.211-1.65,9.211-3.684v-3.684
			C252.29,317.438,248.166,319.088,243.079,319.088z M243.079,324.614c-5.087,0-9.211-1.65-9.211-3.684v3.684
			c0,2.035,4.124,3.684,9.211,3.684c5.087,0,9.211-1.65,9.211-3.684v-3.684C252.29,322.964,248.166,324.614,243.079,324.614z"/>
	</g>
	<text transform="matrix(1 0 0 1 226.1152 350)" fill="#FFFFFF" font-size="12">Invoicing</text>
</g>
<g id="office-manual">
	<rect id="bg_9_" x="2" y="362" fill="#7CC8C5" width="99" height="97"/>
	<path fill="#FFFFFF" d="M64.5,393.132H42.749c-1.528,0-2.769,1.24-2.769,2.768v3.314h2.642c0.735,0,1.334,0.597,1.334,1.333
		c0,0.028-0.004,0.057-0.004,0.086h-7.867c0.023,0.718,0.61,1.29,1.333,1.29h2.562v4.015h2.642c0.735,0,1.334,0.596,1.334,1.332
		c0,0.025-0.004,0.047-0.004,0.072h-7.878c0.022,0.716,0.61,1.29,1.332,1.29h2.575v4.028h2.642c0.735,0,1.334,0.598,1.334,1.334
		c0,0.015-0.004,0.028-0.004,0.043H36.11c0.022,0.717,0.61,1.292,1.332,1.292h2.537v4.055h2.642c0.735,0,1.334,0.596,1.334,1.332
		c0,0.021-0.004,0.041-0.004,0.062h-7.877c0.023,0.717,0.61,1.291,1.333,1.291h2.573v3.294c0,1.528,1.241,2.768,2.769,2.768H64.5
		c1.53,0,2.767-1.24,2.767-2.768V395.9C67.267,394.371,66.03,393.132,64.5,393.132z M62.232,408.3H48.239
		c-0.601,0-1.088-0.487-1.088-1.088s0.487-1.088,1.088-1.088h13.992c0.601,0,1.087,0.488,1.087,1.088
		C63.319,407.813,62.833,408.3,62.232,408.3z M62.232,401.617H48.239c-0.601,0-1.088-0.487-1.088-1.088
		c0-0.6,0.487-1.088,1.088-1.088h13.992c0.601,0,1.087,0.488,1.087,1.088C63.319,401.13,62.833,401.617,62.232,401.617z"/>
	<text transform="matrix(1 0 0 1 9.784 449)" fill="#FFFFFF" font-size="13">Office Manual</text>
</g>
<g id="job-numbers">
	<rect id="bg_10_" x="103" y="362" fill="#AAD29A" width="97" height="97"/>
	<g>
		<path fill="#FFFFFF" d="M164.049,393.132h-26.358c-2.385,0-4.321,1.936-4.321,4.321v3.53h35v-3.53
			C168.37,395.068,166.434,393.132,164.049,393.132z M160.627,397.669h-1.223v-1.223h1.223V397.669z M163.15,397.669h-1.227v-1.223
			h1.227V397.669z M165.527,397.669h-1.227v-1.223h1.227V397.669z"/>
		<path fill="#FFFFFF" d="M133.37,401.558v22.253c0,2.385,1.936,4.321,4.321,4.321h26.358c2.385,0,4.321-1.936,4.321-4.321v-22.253
			H133.37z M139.277,421.145h-2.091v-2.087h2.091V421.145z M139.277,415.744h-2.091v-2.087h2.091V415.744z M139.277,409.91h-2.091
			v-2.087h2.091V409.91z M164.624,421.145h-22.072v-2.087h22.072V421.145z M164.624,415.744h-22.072v-2.087h22.072V415.744z
			 M164.624,409.91h-22.072v-2.087h22.072V409.91z"/>
	</g>
	<text transform="matrix(1 0 0 1 116.345 449)" fill="#FFFFFF" font-size="12">Job Numbers</text>
</g>
<g id="echosign">
	<rect id="bg_11_" x="202" y="362" fill="#DE3236" width="97" height="97"/>
	<g>
		<g>
			<g>
				<defs>
					<rect id="SVGID_1_" x="225.511" y="393.132" width="48.031" height="35"/>
				</defs>
				<clipPath id="SVGID_2_">
					<use xlink:href="#SVGID_1_"  overflow="visible"/>
				</clipPath>
				<path clip-path="url(#SVGID_2_)" fill="#FFFFFF" d="M266.356,393.858c-0.722-0.86-2.003-0.972-2.863-0.25l-25.85,21.69
					l-1.219,3.351c-0.653,1.791-2.434,2.926-4.332,2.76c-0.365-0.032-0.727-0.111-1.076-0.24c-0.077-0.027-0.151-0.062-0.226-0.093
					c-0.675,0.74-0.717,1.883-0.055,2.672c0.36,0.431,0.862,0.674,1.38,0.719c0.519,0.046,1.054-0.107,1.484-0.469l2.805-2.353
					c-0.008-0.21-0.005-0.422,0.013-0.636c0.234-2.679,2.605-4.669,5.284-4.434l0.674,0.059l23.73-19.911
					C266.965,395.999,267.077,394.718,266.356,393.858"/>
			</g>
		</g>
		<rect x="265.493" y="409.223" fill="#FFFFFF" width="8.048" height="18.537"/>
		<g>
			<g>
				<defs>
					<rect id="SVGID_3_" x="225.511" y="393.132" width="48.031" height="35"/>
				</defs>
				<clipPath id="SVGID_4_">
					<use xlink:href="#SVGID_3_"  overflow="visible"/>
				</clipPath>
				<path clip-path="url(#SVGID_4_)" fill="#FFFFFF" d="M252.129,401.642l-1.822-1.406c-1.036-0.851-2.501-1.101-3.809-0.519
					l-7.347,3.271l-4.719,2.074c-0.995,0.443-1.69,1.277-1.996,2.24c-0.059,0.118-0.115,0.239-0.16,0.367l-3.039,8.349
					c-0.443,1.22-0.148,2.527,0.658,3.432c0.017,0.019,0.035,0.036,0.052,0.055c0.048,0.053,0.099,0.104,0.15,0.155
					c0.023,0.021,0.045,0.042,0.067,0.063c0.067,0.06,0.136,0.118,0.207,0.174c0.02,0.015,0.041,0.031,0.063,0.046
					c0.065,0.048,0.131,0.094,0.201,0.137c0.017,0.012,0.033,0.022,0.05,0.033c0.083,0.051,0.169,0.096,0.257,0.141
					c0.021,0.01,0.043,0.02,0.064,0.031c0.093,0.043,0.188,0.085,0.286,0.121c0.287,0.103,0.58,0.166,0.87,0.192
					c1.499,0.131,2.957-0.749,3.497-2.23l2.526-6.941l4.859-2.163L252.129,401.642z"/>
			</g>
			<g>
				<defs>
					<rect id="SVGID_5_" x="225.511" y="393.132" width="48.031" height="35"/>
				</defs>
				<clipPath id="SVGID_6_">
					<use xlink:href="#SVGID_5_"  overflow="visible"/>
				</clipPath>
				<path clip-path="url(#SVGID_6_)" fill="#FFFFFF" d="M231.706,425.155c-0.637-0.096-1.213-0.405-1.631-0.903
					c-0.402-0.479-0.592-1.059-0.604-1.642l-2.652,3.696l0.715,0.854L231.706,425.155z M226.576,426.647l-1.065,1.484l1.646-0.791
					L226.576,426.647z"/>
			</g>
			<g>
				<defs>
					<rect id="SVGID_7_" x="225.511" y="393.132" width="48.031" height="35"/>
				</defs>
				<clipPath id="SVGID_8_">
					<use xlink:href="#SVGID_7_"  overflow="visible"/>
				</clipPath>
				<path clip-path="url(#SVGID_8_)" fill="#FFFFFF" d="M241.632,417.384c-2.236-0.196-4.208,1.459-4.404,3.696
					c-0.196,2.238,1.459,4.208,3.695,4.403l23.167,0.921v-15.765l-6.732-5.076l-7.527,6.316c0.062,0.061,0.108,0.133,0.174,0.191
					l2.948,2.163c0.441,0.414,0.706,1.005,0.65,1.656c-0.096,1.096-1.041,1.907-2.13,1.863L241.632,417.384z"/>
			</g>
		</g>
	</g>
	<text transform="matrix(1 0 0 1 225.4051 449)" fill="#FFFFFF" font-size="12">Echosign</text>
</g>
<g id="wiki">
	<rect id="bg_12_" x="2" y="461" fill="#C5603B" width="99" height="97"/>
	<path fill="#FFFFFF" d="M77.564,511.017c-0.246-1.879-1.106-3.527-2.344-4.777c0.094-0.71,0.099-1.442,0.002-2.188
		c-0.487-3.719-3.361-6.539-6.884-7.123c-1.663-2.708-4.811-4.339-8.148-3.904c-0.668,0.087-1.294,0.258-1.893,0.487
		c-1.653-1.174-3.73-1.76-5.89-1.477c-1.681,0.219-3.178,0.927-4.37,1.966c-1.239-0.472-2.602-0.65-4.006-0.466
		c-2.836,0.37-5.153,2.126-6.358,4.497c-0.197,0.013-0.392,0.021-0.602,0.048c-3.952,0.516-6.874,3.719-7.203,7.534
		c-2.841,1.676-4.552,4.932-4.099,8.407c0.608,4.648,4.863,7.929,9.519,7.32c1.14-0.148,2.197-0.525,3.132-1.068
		c0.192-2.59,1.186-6.862,5.449-9.01c0.252-0.91,1.293-4.048,4.102-5.923c0.003-0.549-0.03-1.329-0.104-1.694
		c-0.019-0.039-0.028-0.081-0.034-0.121c-0.141-0.571-0.406-1.053-0.84-1.494c-0.305,0.252-0.577,0.558-0.8,0.898
		c-0.274,0.422-0.473,0.904-0.579,1.436c-0.057,0.292-0.34,0.479-0.632,0.424c-0.291-0.056-0.482-0.337-0.425-0.633
		c0.126-0.667,0.383-1.277,0.734-1.815c0.246-0.376,0.532-0.712,0.859-1.006c-1.881-1.216-4.386-0.685-5.615,1.187
		c-0.003,0.006-0.006,0.008-0.006,0.008c-0.003,0.005-0.007,0.007-0.007,0.007c-0.452,0.692-1.045,1.238-1.706,1.626
		c0.278,0.958,0.886,1.748,1.684,2.268c0.018,0.011,0.034,0.022,0.051,0.033c0.016,0.006,0.023,0.015,0.034,0.023
		c0.836,0.515,1.855,0.725,2.891,0.536l0.001-0.002c0.294-0.059,0.575,0.13,0.628,0.429c0.025,0.144-0.009,0.286-0.08,0.397
		c-0.077,0.117-0.198,0.204-0.352,0.234c-1.155,0.215-2.309,0.026-3.289-0.471c-0.196,0.194-0.377,0.413-0.531,0.653
		c-0.35,0.536-0.576,1.163-0.642,1.859c-0.004,0.09-0.031,0.167-0.078,0.241c-0.106,0.163-0.297,0.264-0.502,0.248
		c-0.297-0.028-0.517-0.289-0.489-0.586c0.075-0.868,0.365-1.666,0.81-2.348c0.155-0.238,0.329-0.463,0.513-0.665
		c-0.75-0.606-1.33-1.433-1.64-2.401c-0.767,0.25-1.597,0.327-2.401,0.193c0.054,1.104-0.254,2.174-0.829,3.057
		c-0.206,0.314-0.443,0.599-0.712,0.865c1.916,1.653,2.358,4.518,0.94,6.695l-0.003,0.004v0.001l-0.032,0.05
		c-0.604,0.924-0.789,2-0.589,3.007c0.027,0.143-0.004,0.284-0.072,0.386c-0.08,0.124-0.203,0.213-0.35,0.24
		c-0.295,0.064-0.578-0.127-0.633-0.423c-0.251-1.27-0.018-2.637,0.738-3.8l0.033-0.05c0.003-0.005,0.003-0.005,0.003-0.005
		c0.201-0.308,0.348-0.625,0.456-0.955c-0.844,0.047-1.672,0.34-2.374,0.916c-0.231,0.192-0.563,0.149-0.758-0.074
		c-0.188-0.232-0.154-0.571,0.082-0.767c0.946-0.774,2.102-1.155,3.25-1.16c0.053-1.27-0.49-2.555-1.558-3.379
		c-0.499,0.312-1.06,0.543-1.675,0.674c-0.293,0.062-0.579-0.124-0.639-0.416c-0.06-0.292,0.128-0.58,0.417-0.639
		c0.601-0.127,1.138-0.375,1.601-0.725c0.005-0.004,0.011-0.009,0.011-0.009c0.377-0.283,0.703-0.632,0.959-1.024
		c0.518-0.796,0.757-1.772,0.62-2.77c-0.312-0.125-0.61-0.277-0.905-0.469c-0.246-0.161-0.322-0.496-0.155-0.753
		c0.158-0.242,0.498-0.312,0.745-0.151c1.741,1.131,4.016,0.765,5.327-0.781c-0.927-0.763-1.531-1.797-1.766-2.906
		c-0.062-0.292,0.128-0.582,0.419-0.642c0.288-0.06,0.575,0.128,0.637,0.415c0.183,0.866,0.646,1.664,1.355,2.263
		c1.092-1.331,2.756-1.99,4.402-1.852c0.424-0.891,0.497-1.868,0.264-2.781c-0.073-0.286,0.096-0.578,0.385-0.653
		c0.289-0.08,0.582,0.094,0.658,0.386c0.276,1.051,0.214,2.196-0.221,3.258c0.445,0.135,0.883,0.335,1.293,0.601
		c0.006,0.004,0.007,0.012,0.01,0.016c0.914,0.58,1.519,1.3,1.884,2.126c0.888-0.566,1.96-0.876,3.092-0.801l0.001-0.004
		c0.3,0.019,0.523,0.277,0.5,0.578c-0.004,0.097-0.036,0.186-0.084,0.26c-0.1,0.154-0.284,0.254-0.485,0.246
		c-1.012-0.068-1.956,0.247-2.703,0.812c0.061,0.342,0.081,0.705,0.078,1.076c0.694-0.328,1.466-0.587,2.343-0.727
		c0.658-0.769,3.561-3.779,7.937-2.704c0.278,0.068,0.446,0.349,0.378,0.626c-0.067,0.278-0.344,0.448-0.626,0.379
		c-4.222-1.038-6.893,2.352-7.004,2.496l-0.129,0.168l-0.21,0.031c-5.589,0.766-6.864,6.474-6.916,6.717l-0.054,0.249l-0.232,0.111
		c-4.34,2.058-5.062,6.45-5.126,8.746c0.21,0.392,0.45,0.774,0.731,1.137c2.138,2.777,5.652,3.866,8.845,3.041
		c2.931,2.463,7.262,2.659,10.421,0.228c0.166-0.129,0.31-0.262,0.459-0.392c2.528,0.824,5.409,0.425,7.675-1.32
		c1.123-0.864,1.96-1.955,2.501-3.166c1.576-0.109,3.135-0.668,4.478-1.702c0.953-0.734,1.747-1.678,2.298-2.747
		c0.403-0.782,0.649-1.656,0.76-2.547C77.671,512.581,77.663,511.78,77.564,511.017z M69.419,507.091
		c-1.043,0.676-2.253,0.932-3.415,0.809c-0.194,1.277,0.209,2.637,1.195,3.589c0.539-0.259,1.133-0.431,1.768-0.495
		c0.303-0.029,0.572,0.191,0.598,0.492c0.03,0.302-0.194,0.572-0.492,0.599c-0.622,0.061-1.192,0.252-1.699,0.553
		c-0.423,0.252-0.793,0.567-1.096,0.935c-0.612,0.745-0.964,1.705-0.937,2.729c0.3,0.161,0.585,0.349,0.861,0.576
		c0.232,0.191,0.27,0.537,0.074,0.778c-0.187,0.228-0.538,0.26-0.769,0.069c-1.633-1.338-3.973-1.223-5.469,0.191
		c0.85,0.875,1.344,1.987,1.458,3.135c0.03,0.3-0.194,0.572-0.496,0.603c-0.297,0.027-0.566-0.194-0.597-0.492
		c-0.088-0.897-0.465-1.754-1.115-2.438c-1.253,1.221-3.009,1.701-4.657,1.378c-0.528,0.851-0.711,1.832-0.578,2.78
		c0.041,0.297-0.163,0.572-0.463,0.618c-0.301,0.048-0.579-0.162-0.622-0.465c-0.162-1.093,0.031-2.242,0.589-3.266
		c-0.434-0.188-0.855-0.438-1.238-0.754c-0.007-0.005-0.006-0.012-0.01-0.017c-0.858-0.688-1.388-1.485-1.665-2.358
		c-0.96,0.473-2.078,0.665-3.212,0.463c-0.303-0.05-0.5-0.336-0.444-0.636c0.015-0.098,0.058-0.184,0.114-0.253
		c0.118-0.143,0.315-0.225,0.518-0.194c1.014,0.182,2.005-0.031,2.822-0.518c0.101-0.059,0.317-1.748,0.311-1.938
		c-0.023-0.697-0.444-1.383-0.823-1.981c-0.079-0.125-0.103-0.27-0.078-0.392c0.029-0.147,0.111-0.277,0.24-0.357
		c0.254-0.172,0.593-0.099,0.757,0.162c0.449,0.708,0.73,1.499,0.81,2.335c0.072,0.755-0.339,1.598-0.108,2.319
		c0.012,0.04,0.018,0.083,0.02,0.125c0.078,0.594,0.292,1.111,0.682,1.604c0.336-0.221,0.644-0.499,0.908-0.818
		c0.325-0.396,0.579-0.861,0.747-1.386c0.09-0.29,0.395-0.446,0.684-0.357c0.289,0.089,0.45,0.395,0.358,0.687
		c-0.202,0.66-0.529,1.248-0.944,1.752c-0.29,0.352-0.618,0.659-0.981,0.92c1.764,1.439,4.356,1.183,5.807-0.57
		c0.547-0.662,1.208-1.146,1.919-1.465c-0.173-1-0.701-1.866-1.447-2.48c-0.015-0.012-0.031-0.026-0.048-0.038
		c-0.014-0.008-0.02-0.018-0.032-0.027c-0.786-0.614-1.794-0.94-2.86-0.865c-0.306,0.028-0.569-0.194-0.589-0.502
		c-0.009-0.149,0.041-0.288,0.126-0.392c0.09-0.11,0.222-0.184,0.381-0.196c1.192-0.089,2.336,0.23,3.27,0.844
		c0.219-0.174,0.427-0.376,0.61-0.601c0.413-0.502,0.712-1.111,0.856-1.806c0.015-0.091,0.051-0.166,0.108-0.235
		c0.125-0.152,0.33-0.233,0.534-0.195c0.297,0.061,0.49,0.351,0.429,0.647c-0.172,0.87-0.556,1.644-1.081,2.283
		c-0.184,0.222-0.386,0.429-0.593,0.614c0.689,0.697,1.18,1.597,1.387,2.61c0.804-0.166,1.65-0.151,2.448,0.076
		c0.069-1.121,0.499-2.169,1.18-2.997c0.242-0.295,0.515-0.556,0.815-0.794c-1.75-1.885-1.876-4.829-0.198-6.869
		c0.004-0.006,0.042-0.051,0.042-0.051c0.712-0.866,1.021-1.932,0.932-2.972c-0.011-0.148,0.036-0.287,0.116-0.383
		c0.095-0.115,0.229-0.192,0.38-0.202c0.304-0.033,0.57,0.192,0.592,0.498c0.112,1.311-0.277,2.666-1.172,3.755l-0.039,0.047
		c-0.241,0.292-0.425,0.595-0.572,0.918c0.858,0.046,1.728-0.156,2.502-0.66c0.256-0.169,0.585-0.087,0.758,0.159
		C69.751,506.583,69.679,506.921,69.419,507.091z"/>
	<text transform="matrix(1 0 0 1 39.8211 548)" fill="#FFFFFF" font-size="13">Wiki</text>
</g>
<g id="epicor">
	<rect id="bg_13_" x="103" y="461" fill="#604962" width="97" height="97"/>
	<g id="Your_Icon_5_">
		<path fill="#FFFFFF" d="M152.037,498.205c-7.889-0.575-14.81,5.61-15.455,13.815c-0.643,8.203,5.232,15.326,13.128,15.908
			c7.883,0.573,14.804-5.607,15.446-13.815C165.804,505.907,159.927,498.785,152.037,498.205z M160.376,518.967l-10.622-5.062
			l-0.068-9.911l1.801-0.007l0.058,8.792l9.609,4.573L160.376,518.967z M157.978,495.241c0,1.254-1.023,2.273-2.288,2.273h-9.637
			c-1.266,0-2.291-1.02-2.291-2.273l0,0c0-1.257,1.025-2.276,2.291-2.276h9.638C156.955,492.965,157.978,493.984,157.978,495.241
			L157.978,495.241z M141.959,499.207c0.409,0.425,0.393,1.097-0.034,1.504l-1.937,1.834c-0.429,0.406-1.104,0.391-1.513-0.034
			l-0.941-0.978c-0.408-0.427-0.392-1.096,0.037-1.504l1.934-1.834c0.431-0.407,1.105-0.39,1.517,0.034L141.959,499.207z"/>
	</g>
	<text transform="matrix(1 0 0 1 133.5286 548)" fill="#FFFFFF" font-size="12">Epicor</text>
</g>
<g id="support">
	<rect id="bg_14_" x="202" y="461" fill="#1A434D" width="97" height="97"/>
	<path id="help_2_" fill="#FFFFFF" d="M237.221,497.091L237.221,497.091c-6.834,6.835-6.835,17.916,0,24.75
		c6.835,6.835,17.912,6.831,24.747-0.002c6.835-6.836,6.837-17.913,0.002-24.748C255.135,490.257,244.057,490.257,237.221,497.091z
		 M261.15,497.913c0.968,0.97,1.767,2.038,2.441,3.163l-4.734,4.734c-0.485-1.232-1.222-2.39-2.218-3.385
		c-0.991-0.997-2.151-1.733-3.388-2.219l4.734-4.734C259.11,496.145,260.18,496.945,261.15,497.913z M243.377,515.686
		c-3.432-3.442-3.433-9.001-0.001-12.443c3.441-3.431,8.998-3.431,12.443,0c3.426,3.44,3.428,9.001-0.002,12.443
		C252.375,519.117,246.816,519.114,243.377,515.686z M238.042,521.021c-0.966-0.971-1.767-2.041-2.441-3.166l4.735-4.734
		c0.485,1.232,1.224,2.39,2.221,3.385c0.995,0.991,2.152,1.733,3.384,2.221l-4.735,4.734
		C240.081,522.788,239.013,521.987,238.042,521.021z M241.206,495.469l4.736,4.736c-1.232,0.485-2.39,1.223-3.388,2.219
		c-0.995,0.997-1.733,2.152-2.218,3.385l-4.736-4.735c0.673-1.124,1.475-2.193,2.442-3.164
		C239.011,496.944,240.081,496.143,241.206,495.469z M257.986,523.461l-4.736-4.736c1.232-0.485,2.391-1.232,3.385-2.218
		c0.991-0.995,1.736-2.153,2.221-3.388l4.736,4.736c-0.673,1.125-1.475,2.195-2.442,3.166
		C260.18,521.987,259.11,522.788,257.986,523.461z"/>
	<text transform="matrix(1 0 0 1 227.1697 548)" fill="#FFFFFF" font-size="12">Support</text>
</g>
<g id="tropos">
	<rect x="1" fill="none" width="150" height="60"/>
	<text transform="matrix(1 0 0 1 25.1177 42.231)" fill="#FFFFFF" font-size="22.1269">Tropos</text>
</g>
<g id="bloomfire">
	<rect x="151" y="1" fill="none" width="150" height="59"/>
	<text transform="matrix(1 0 0 1 175.2676 42.231)" fill="#FFFFFF" font-size="22.1269">Bloomfire</text>
</g>
</svg>
